<svg width="295" height="182" viewBox="0 0 295 182" fill="none" xmlns="http://www.w3.org/2000/svg" shape-rendering ="crispEdges">
<g clip-path="url(#clip0)">
<g filter="url(#filter0_i)">
<path d="M57.3143 135.857H31.7143V141.229H51.6C50.2286 151.057 42.4 157.457 30.5143 157.457C17.6 157.457 6.34286 147.8 6.34286 133C6.34286 118.2 17.6 108.543 30.5143 108.543C42.1143 108.543 49.7714 115.743 51.1429 125.743H57.0286C55.8286 113 45.1429 103 30.5143 103C14.1714 103 0 115.057 0 132.829C0 150.829 14.1714 163 30.5143 163C46.5714 163 57.3143 152.657 57.3143 137.971V135.857ZM110.743 162.2H117.371L94 103.8H86.5143L62.5143 162.2H68.9714L74.7429 147.857H105.2L110.743 162.2ZM77.0286 142.029L90.2286 109.171L102.971 142.029H77.0286ZM155.429 162.2L163.943 162.257L141.143 141.343C154.171 140.771 163.429 133.571 163.429 122.829C163.429 111.457 153.429 103.8 139.714 103.8H127.029V162.2H133.314V141.343L155.429 162.2ZM139.6 109.229C150.171 109.229 157.143 114.657 157.143 122.829C157.143 130.829 150.171 136.029 139.714 136.029H133.314V109.229H139.6ZM225.2 103.8L203.371 137.229L181.6 103.8H176.114V162.2H181.829V114.029L201.771 144.029H205.314L224.971 113.743V162.2H230.743V103.8H225.2ZM288.229 162.2H294.914L271.543 103.8H264L240 162.2H246.514L252.229 147.857H282.743L288.229 162.2ZM254.571 142.029L267.771 109.171L280.514 142.029H254.571Z" fill="white"/>
</g>
<g filter="url(#filter1_i)">
<path d="M190.019 37.2896C190.019 25.8648 180.692 16.5383 169.267 16.5383H167.868C165.653 7.44508 157.376 0.800003 147.7 0.800003C138.14 0.800003 129.863 7.44508 127.532 16.5383H126.133C114.708 16.5383 105.381 25.8648 105.381 37.2896C105.381 43.1187 107.713 48.4814 112.026 52.4451C111.444 54.4269 111.094 56.4088 111.094 58.3907C111.21 69.8156 120.42 79.142 131.845 79.142C135.459 79.142 139.539 78.2093 141.871 76.4606V88.585C141.871 89.8674 143.153 90.8 144.436 90.8H151.081C152.363 90.8 153.646 89.8674 153.646 88.585V76.4606C155.977 78.2093 160.058 79.142 163.672 79.142C175.096 79.142 184.423 69.8156 184.423 58.3907C184.423 56.4088 184.073 54.4269 183.49 52.4451C187.57 48.5979 190.019 43.1187 190.019 37.2896ZM178.477 52.5617C179.177 54.427 179.643 56.4088 179.643 58.3907C179.643 67.2508 172.415 74.4788 163.555 74.4788C159.824 74.4788 156.444 73.1964 153.646 70.9814C159.008 69.8156 167.169 65.8518 167.169 53.2611C167.169 51.9788 166.12 50.9295 164.837 50.9295C159.941 50.9295 151.78 52.9114 147.817 59.7896C143.853 52.9114 135.576 50.9295 130.679 50.9295C129.397 50.9295 128.348 51.9788 128.348 53.2611C128.348 65.8518 136.625 69.8156 141.871 70.9814C139.073 73.1964 135.576 74.4788 131.962 74.4788C123.102 74.4788 115.874 67.2508 115.874 58.3907C115.874 56.4088 116.223 54.427 116.923 52.5617L117.506 50.9295L116.223 49.8803C112.376 46.8492 110.161 42.186 110.161 37.2896C110.161 28.4295 117.389 21.2016 126.249 21.2016C127.182 21.2016 128.115 21.3181 129.164 21.4347L131.612 21.901L131.962 19.4529C133.011 11.5254 139.889 5.46322 147.933 5.46322C155.977 5.46322 162.855 11.5254 163.905 19.4529L164.254 21.901L166.703 21.4347C167.752 21.2016 168.684 21.2016 169.617 21.2016C178.477 21.2016 185.705 28.4295 185.705 37.2896C185.705 42.186 183.49 46.8492 179.643 49.8803L178.244 50.9295L178.477 52.5617Z" fill="white"/>
</g>
</g>
<defs>
<filter id="filter0_i" x="0" y="103" width="294.914" height="64" filterUnits="userSpaceOnUse" color-interpolation-filters="sRGB">
<feFlood flood-opacity="0" result="BackgroundImageFix"/>
<feBlend mode="normal" in="SourceGraphic" in2="BackgroundImageFix" result="shape"/>
<feColorMatrix in="SourceAlpha" type="matrix" values="0 0 0 0 0 0 0 0 0 0 0 0 0 0 0 0 0 0 127 0" result="hardAlpha"/>
<feOffset dy="4"/>
<feGaussianBlur stdDeviation="2"/>
<feComposite in2="hardAlpha" operator="arithmetic" k2="-1" k3="1"/>
<feColorMatrix type="matrix" values="0 0 0 0 0 0 0 0 0 0 0 0 0 0 0 0 0 0 0.25 0"/>
<feBlend mode="normal" in2="shape" result="effect1_innerShadow"/>
</filter>
<filter id="filter1_i" x="105.381" y="0.800003" width="84.6373" height="94" filterUnits="userSpaceOnUse" color-interpolation-filters="sRGB">
<feFlood flood-opacity="0" result="BackgroundImageFix"/>
<feBlend mode="normal" in="SourceGraphic" in2="BackgroundImageFix" result="shape"/>
<feColorMatrix in="SourceAlpha" type="matrix" values="0 0 0 0 0 0 0 0 0 0 0 0 0 0 0 0 0 0 127 0" result="hardAlpha"/>
<feOffset dy="4"/>
<feGaussianBlur stdDeviation="2"/>
<feComposite in2="hardAlpha" operator="arithmetic" k2="-1" k3="1"/>
<feColorMatrix type="matrix" values="0 0 0 0 0 0 0 0 0 0 0 0 0 0 0 0 0 0 0.25 0"/>
<feBlend mode="normal" in2="shape" result="effect1_innerShadow"/>
</filter>
<clipPath id="clip0">
<rect width="294.914" height="182" fill="white"/>
</clipPath>
</defs>
</svg>
